<?xml version="1.0" encoding="utf-8" ?>

<svg xmlns="http://www.w3.org/2000/svg" version="1.1"
	 xmlns:xlink="http://www.w3.org/1999/xlink">
	<style>
		.filled {
			fill : darkorange;
		}
		
		.blank {
			fill : transparent;
		}
		
		.edge {
			stroke : gray;
			stroke-width : 2px;
		}
		
		text {
			font-family : Consolas;
		}
	</style>
	<defs>
		<marker id="TrianglePositive"
				viewBox="0 0 10 10" refX="0" refY="5" 
				markerUnits="strokeWidth"
				markerWidth="5" markerHeight="5"
				orient="auto"
				fill="limegreen">
					<path d="M 0 0 L 10 5 L 0 10 z" />
		</marker>
		<marker id="TriangleNegative"
				viewBox="0 0 10 10" refX="0" refY="5" 
				markerUnits="strokeWidth"
				markerWidth="5" markerHeight="5"
				orient="auto"
				fill="red">
					<path d="M 0 0 L 10 5 L 0 10 z" />
		</marker>
	</defs>
	<line x1="10" y1="10" x2="10" y2="100" stroke="black" stroke-width="2px" marker-end="url(#TrianglePositive)" />
	<text x="20" y="20">Y axis</text>
	<g transform="translate ( 50, 50 )"><g transform="translate ( 0, 0 )"><polygon points="0,0 50,50, 100,0" class="filled" /><polygon points="100,0 50,50, 100,100" class="filled" /><polygon points="0,100 50,50, 100,100" class="filled" /><polygon points="0,0 50,50, 0,100" class="blank" /><line x1="0" y1="0" x2="100" y2="100" class="edge" marker-end="url(#TrianglePositive)" /><line x1="100" y1="0" x2="0" y2="100" class="edge" marker-end="url(#TrianglePositive)" /><text x="-5" y="-10">1</text><text x="95" y="-10">2</text><text x="-5" y="120">1</text><text x="95" y="120">2</text></g><g transform="translate ( 150, 0 )"><polygon points="0,0 50,50, 100,0" class="filled" /><polygon points="100,0 50,50, 100,100" class="filled" /><polygon points="0,100 50,50, 100,100" class="filled" /><polygon points="0,0 50,50, 0,100" class="blank" /><line x1="100" y1="100" x2="0" y2="0" class="edge" marker-end="url(#TriangleNegative)" /><line x1="0" y1="100" x2="100" y2="0" class="edge" marker-end="url(#TriangleNegative)" /><text x="-5" y="-10">-1</text><text x="95" y="-10">-2</text><text x="-5" y="120">-1</text><text x="95" y="120">-2</text></g><g transform="translate ( 300, 0 )"><polygon points="0,0 50,50, 100,0" class="filled" /><polygon points="100,0 50,50, 100,100" class="blank" /><polygon points="0,100 50,50, 100,100" class="filled" /><polygon points="0,0 50,50, 0,100" class="blank" /><line x1="0" y1="0" x2="100" y2="100" class="edge" marker-end="url(#TrianglePositive)" /><line x1="0" y1="100" x2="100" y2="0" class="edge" marker-end="url(#TriangleNegative)" /><text x="-5" y="-10">-1</text><text x="95" y="-10">0</text><text x="-5" y="120">1</text><text x="95" y="120">0</text></g><g transform="translate ( 450, 0 )"><polygon points="0,0 50,50, 100,0" class="filled" /><polygon points="100,0 50,50, 100,100" class="blank" /><polygon points="0,100 50,50, 100,100" class="filled" /><polygon points="0,0 50,50, 0,100" class="blank" /><line x1="100" y1="100" x2="0" y2="0" class="edge" marker-end="url(#TriangleNegative)" /><line x1="100" y1="0" x2="0" y2="100" class="edge" marker-end="url(#TrianglePositive)" /><text x="-5" y="-10">1</text><text x="95" y="-10">0</text><text x="-5" y="120">-1</text><text x="95" y="120">0</text></g><g transform="translate ( 0, 170 )"><polygon points="0,0 50,50, 100,0" class="blank" /><polygon points="100,0 50,50, 100,100" class="filled" /><polygon points="0,100 50,50, 100,100" class="blank" /><polygon points="0,0 50,50, 0,100" class="filled" /><line x1="0" y1="0" x2="100" y2="100" class="edge" marker-end="url(#TrianglePositive)" /><line x1="100" y1="0" x2="0" y2="100" class="edge" marker-end="url(#TrianglePositive)" /><text x="-5" y="-10">0</text><text x="95" y="-10">1</text><text x="-5" y="120">0</text><text x="95" y="120">1</text></g><g transform="translate ( 150, 170 )"><polygon points="0,0 50,50, 100,0" class="blank" /><polygon points="100,0 50,50, 100,100" class="filled" /><polygon points="0,100 50,50, 100,100" class="blank" /><polygon points="0,0 50,50, 0,100" class="filled" /><line x1="100" y1="100" x2="0" y2="0" class="edge" marker-end="url(#TriangleNegative)" /><line x1="0" y1="100" x2="100" y2="0" class="edge" marker-end="url(#TriangleNegative)" /><text x="-5" y="-10">0</text><text x="95" y="-10">-1</text><text x="-5" y="120">0</text><text x="95" y="120">-1</text></g><g transform="translate ( 300, 170 )"><polygon points="0,0 50,50, 100,0" class="filled" /><polygon points="100,0 50,50, 100,100" class="filled" /><polygon points="0,100 50,50, 100,100" class="blank" /><polygon points="0,0 50,50, 0,100" class="filled" /><line x1="0" y1="0" x2="100" y2="100" class="edge" marker-end="url(#TrianglePositive)" /><line x1="0" y1="100" x2="100" y2="0" class="edge" marker-end="url(#TriangleNegative)" /><text x="-5" y="-10">-2</text><text x="95" y="-10">-1</text><text x="-5" y="120">0</text><text x="95" y="120">-1</text><text x="40" y="90" font-weight="bold">MN</text></g><g transform="translate ( 450, 170 )"><polygon points="0,0 50,50, 100,0" class="filled" /><polygon points="100,0 50,50, 100,100" class="filled" /><polygon points="0,100 50,50, 100,100" class="blank" /><polygon points="0,0 50,50, 0,100" class="filled" /><line x1="100" y1="100" x2="0" y2="0" class="edge" marker-end="url(#TriangleNegative)" /><line x1="100" y1="0" x2="0" y2="100" class="edge" marker-end="url(#TrianglePositive)" /><text x="-5" y="-10">2</text><text x="95" y="-10">1</text><text x="-5" y="120">0</text><text x="95" y="120">1</text><text x="40" y="90" font-weight="bold">MN</text></g><g transform="translate ( 0, 340 )"><polygon points="0,0 50,50, 100,0" class="filled" /><polygon points="100,0 50,50, 100,100" class="blank" /><polygon points="0,100 50,50, 100,100" class="filled" /><polygon points="0,0 50,50, 0,100" class="filled" /><line x1="0" y1="0" x2="100" y2="100" class="edge" marker-end="url(#TrianglePositive)" /><line x1="100" y1="0" x2="0" y2="100" class="edge" marker-end="url(#TrianglePositive)" /><text x="-5" y="-10">-1</text><text x="95" y="-10">0</text><text x="-5" y="120">-1</text><text x="95" y="120">0</text></g><g transform="translate ( 150, 340 )"><polygon points="0,0 50,50, 100,0" class="filled" /><polygon points="100,0 50,50, 100,100" class="blank" /><polygon points="0,100 50,50, 100,100" class="filled" /><polygon points="0,0 50,50, 0,100" class="filled" /><line x1="100" y1="100" x2="0" y2="0" class="edge" marker-end="url(#TriangleNegative)" /><line x1="0" y1="100" x2="100" y2="0" class="edge" marker-end="url(#TriangleNegative)" /><text x="-5" y="-10">1</text><text x="95" y="-10">0</text><text x="-5" y="120">1</text><text x="95" y="120">0</text></g><g transform="translate ( 300, 340 )"><polygon points="0,0 50,50, 100,0" class="blank" /><polygon points="100,0 50,50, 100,100" class="filled" /><polygon points="0,100 50,50, 100,100" class="filled" /><polygon points="0,0 50,50, 0,100" class="filled" /><line x1="100" y1="100" x2="0" y2="0" class="edge" marker-end="url(#TriangleNegative)" /><line x1="100" y1="0" x2="0" y2="100" class="edge" marker-end="url(#TrianglePositive)" /><text x="-5" y="-10">0</text><text x="95" y="-10">-1</text><text x="-5" y="120">-2</text><text x="95" y="120">-1</text><text x="40" y="10" font-weight="bold">MX</text></g><g transform="translate ( 450, 340 )"><polygon points="0,0 50,50, 100,0" class="blank" /><polygon points="100,0 50,50, 100,100" class="filled" /><polygon points="0,100 50,50, 100,100" class="filled" /><polygon points="0,0 50,50, 0,100" class="filled" /><line x1="0" y1="0" x2="100" y2="100" class="edge" marker-end="url(#TrianglePositive)" /><line x1="0" y1="100" x2="100" y2="0" class="edge" marker-end="url(#TriangleNegative)" /><text x="-5" y="-10">0</text><text x="95" y="-10">1</text><text x="-5" y="120">2</text><text x="95" y="120">1</text><text x="40" y="10" font-weight="bold">MX</text></g></g></svg>